<svg width="577" height="528" viewBox="0 0 577 528" fill="none" xmlns="http://www.w3.org/2000/svg">
<path fill-rule="evenodd" clip-rule="evenodd" d="M463.781 398.134C463.781 394.372 464.686 390.68 464.686 387.275C466.325 389.859 465.882 397.956 480.452 408.612C482.974 410.456 485.364 411.952 487.89 413.844C490.377 415.707 492.518 417.085 494.867 419.083C497.29 421.145 499.327 422.884 501.279 425.341C508.882 434.911 507.671 443.137 507.671 455.599C507.671 465.805 497.038 461.567 493.192 461.482C493.192 451.028 496.169 441.062 484.474 429.024L479.504 423.586C475.897 419.979 472.982 416.974 469.553 413.176C466.69 410.004 463.781 404.042 463.781 398.134ZM576.449 201.441V204.327C574.769 208.952 563.882 207.582 557.03 208.13C539.118 209.563 526.148 217.859 512.198 227.098C510.836 228 509.483 228.903 508.124 229.811C499.418 235.631 490.062 240.144 480.018 243.785C475.168 245.543 463.279 250.063 458.351 250.173C458.351 252.95 460.381 257.176 461.364 259.377L469.057 276.118C475.74 289.269 482.031 306.038 485.6 320.66C491.915 346.531 484.545 355.077 507.211 372.351C512.284 376.217 528.051 386.418 531.7 390.89C532.699 392.114 533.34 392.892 534.074 394.352C537.459 401.081 537.476 405.481 538.704 414.16C539.172 417.468 540.091 434.236 539.731 437.434C538.922 444.64 538.79 452.925 537.669 459.805C535.677 472.038 532.637 486.213 522.077 493.081C516.189 496.91 509.796 497.466 502.766 498.205C497.317 498.778 484.413 499.355 479.165 498.133C477.662 504.583 460.565 520.242 454.591 523.784C446.754 528.429 445.648 527.939 433.914 527.999C426.669 528.037 418.395 526.125 412.814 524.213C400.149 519.872 385.395 508.038 402.381 499.628C418.75 491.524 430.692 498.68 442.459 489.933C446.985 486.568 450.564 480.65 452.117 474.252C456.426 456.514 441.18 445.56 429.009 436.526C424.214 432.968 418.986 429.96 414.008 426.64C411.532 424.99 409.164 423.366 406.766 421.665L392.351 411.194C389.913 409.37 377.595 398.986 375.729 396.595C373.354 393.552 369.207 389.658 365.955 387.727C365.329 385.939 364.478 376.687 363.841 373.645C359.039 350.71 355.876 318.063 372.132 299.672C374.882 296.559 383.103 289.318 383.192 285.919C377.711 280.467 364.9 286.331 360.892 289.348C355.439 293.454 351.264 299.012 347.848 306.206C340.02 322.696 341.051 338.063 341.158 357.863C336.051 358.289 329.842 359.063 324.792 359.597C321.884 359.904 319.375 359.904 316.463 360.317C313.692 360.709 310.968 360.975 308.127 361.07C306.614 360.009 304.295 355.581 302.98 353.53C293.83 339.256 283.719 331.789 269.75 322.011C267.209 320.232 264.43 318.906 261.907 317.206C239.516 302.124 246.147 304.98 219.456 294.946C216.33 293.77 213.021 292.96 209.44 292.34C200.623 290.813 199.873 288.772 194.183 281.305C191.707 278.055 185.346 269.777 182.183 267.523C179.147 265.361 175.986 261.669 171.797 258.457C170.842 257.726 169.197 256.437 168.275 255.629C165.884 253.535 167.746 251.186 168.739 245.653C169.406 241.94 169.5 237.907 169.474 233.864C169.453 230.645 168.117 224.462 168.379 222.223L171.215 212.376C173.29 204.601 177.691 184.453 172.416 179.097C170.337 176.986 165.794 177.855 162.893 179.603C157.948 182.581 148.085 194.711 142.168 197.798C139.44 199.221 116.777 197.942 110.37 197.852C107.196 197.807 107.339 197.739 105.705 196.036C100.024 190.115 82.589 169.898 76.1257 178.801C74.1832 181.477 74.3443 186.316 74.8942 190.259C76.6169 202.611 84.8879 216.113 85.4941 231.151C86.8658 265.18 88.4093 251.835 94.5501 273.713C95.6691 277.699 97.0021 280.154 96.9626 284.556C96.9231 288.951 96.7117 293.012 97.1468 297.422C97.8335 304.385 99.6606 312.155 100.865 319.401C103.55 335.545 105.95 355.86 116.044 368.943C117.981 371.454 120.096 373.588 121.897 376.25L127.895 382.913C138.923 396.03 145.371 409.468 148.71 426.778C149.459 430.664 149.923 434.407 150.376 438.366C150.629 440.582 150.666 441.714 150.658 444.286C150.651 446.548 150.658 448.812 150.657 451.075C145.623 447.674 140.506 446.207 138.899 439.31H137.994C137.759 442.137 135.369 447.638 134.218 450.014C128.335 462.159 127.306 466.986 117.072 478.568C116.218 479.533 116.344 479.709 115.472 480.588C114.713 481.351 114.361 481.48 113.518 482.254C113.45 482.317 113.354 482.411 113.286 482.474C113.218 482.538 113.122 482.631 113.054 482.694C112.957 482.784 112.678 483.038 112.582 483.127C112.263 483.421 112.218 483.465 111.876 483.779C110.42 485.115 109.31 485.727 107.601 486.744C100.395 491.031 86.5964 491.84 77.3592 491.348C70.777 490.997 62.6758 489.548 57.5093 485.859C56.838 485.379 56.265 485.009 55.634 484.567C48.4124 479.509 52.7808 471.642 58.7128 467.719C65.1093 463.49 69.6992 461.324 78.6061 459.559C85.7389 458.146 92.3215 455.731 96.6297 449.529C98.7395 446.492 99.8575 443.066 101.339 439.758C103.025 435.992 103 432.566 103.545 427.926L103.153 414.424C103.153 412.016 103.201 409.567 103.171 407.166C103.139 404.552 102.678 403.756 102.69 400.86C102.728 391.508 102.314 382.781 101.094 374.402C99.2641 361.833 96.846 351.471 93.0284 339.934C90.8058 333.217 88.1752 326.106 85.0585 319.85C82.2398 314.193 74.4298 285.694 71.8784 276.922C66.7696 259.359 67.4371 260.804 64.8154 241.452C64.3229 237.817 64.6918 231.485 64.692 227.549C64.6923 218.297 63.167 211.02 61.9503 202.237L58.8933 177.24C57.2809 164.274 56.2051 150.992 55.6456 137.954C55.3172 130.301 53.4449 120.399 51.4062 114.14C47.8412 103.195 41.6833 96.9144 35.0237 88.4412C33.8293 86.9215 33.0027 85.8989 31.8014 84.424L16.2814 64.6505C9.1607 55.3323 -5.42381 39.4885 2.09755 26.9475L6.83989 17.6628C8.10292 14.5246 9.32708 10.6677 10.8716 7.66757C19.6349 -9.35461 36.0703 6.21522 46.0067 13.6585C70.8832 32.2936 80.0034 16.2165 103.607 22.1207C110.82 23.9252 117.201 26.5724 123.249 30.5325C128.84 34.1938 133.889 38.5922 137.64 44.1954C145.91 56.5507 148.567 72.1023 151.601 86.7943C154.076 98.7751 157.183 108.863 159.009 121.467C159.635 125.791 160.02 129.839 160.592 133.911L162.37 146.16C163.18 150.082 164.732 153.174 166.048 156.509C166.688 158.13 167.397 160.016 168.236 161.561C170.712 166.117 173.9 169.981 178.073 172.99L184.506 177.484C185.208 177.908 185.782 178.115 186.549 178.536C204.201 188.23 210.52 188.306 229.13 192.067C248.664 196.016 270.326 198.766 290.286 201.499C311.204 204.363 332.704 205.927 353.458 208.462C367.92 210.228 388.873 213.009 402.339 216.141C414.077 218.87 407.688 222.195 424.778 217.957C450.491 211.581 477.06 196.568 508.849 189.36C524.202 185.879 544.381 184.05 558.978 188.912C565.036 190.93 573.251 193.671 575.948 199.997C576.167 200.512 576.331 200.992 576.449 201.441V201.441Z" fill="#7758AC"/>
<path fill-rule="evenodd" clip-rule="evenodd" d="M150.659 451.074L150.611 467.696C149.869 473.978 148.572 479.961 145.84 484.71C143.327 489.075 139.53 490.943 134.114 492.441C128.603 493.966 125.778 496.805 125.778 503.562C132.107 507.8 144.177 510.392 151.711 509.134C160.088 507.734 165.81 502.167 169.217 494.513C170.316 492.044 171.004 488.896 171.868 486.304C172.375 484.78 172.762 483.787 173.348 482.355L175.056 478.676C171.473 455.844 174.107 455.209 173.24 437.045C173.005 432.126 173.555 433.178 167.705 427.714C165.366 425.53 163.06 422.962 162.4 418.504C161.929 415.322 160.932 407.632 161.805 404.732C162.96 400.891 171.504 397.021 177.583 390.666L185.126 383.736C188.431 381.097 191.303 380.823 195.941 379.611C198.859 378.849 199.193 379.09 200.011 376.485C200.586 374.656 200.899 372.174 201.156 369.986C201.712 365.262 202.177 361.522 203.42 357.238C206.023 348.263 207.198 343.437 211.354 335.762C213.025 332.675 221.077 319.333 223.514 318.169C224.149 318.755 228.618 325.497 230.754 326.799C234.209 325.04 236.743 319.366 240.29 318.087C247.612 334.37 252.618 352.37 245.612 371.808C242.217 381.229 238.632 385.184 232.257 391.501C230.195 393.546 230.547 394.361 231.579 397.301C234.989 407.007 232.204 415.082 233.806 420.017C240.962 422.153 261.301 421.041 277.131 430.484C283.208 434.109 287.708 437.947 291.483 443.291C296.826 450.855 295.302 457.277 299.984 461.946C304.234 461.59 306.396 457.731 308.864 456.159C310.31 467.164 309.08 474.586 304.731 483.432C301.509 489.984 295.76 498.5 289.211 500.451C289.134 503.81 289.277 507.583 287.881 510.448C286.582 513.113 284.936 514.772 284.142 518.042C301.089 518.042 300.59 515.713 304.255 515.071C306.126 514.744 313.814 519.755 320.986 521.021C339.978 524.375 361.058 511.656 370.121 493.61C382.759 468.443 376.339 428.7 369.214 400.396C368.186 396.311 367.259 391.704 365.957 387.727C365.33 385.939 364.479 376.687 363.842 373.644C359.04 350.71 355.878 318.063 372.133 299.671C374.884 296.559 383.105 289.318 383.194 285.919C377.712 280.467 364.901 286.331 360.893 289.348C355.44 293.454 351.265 299.012 347.85 306.206C340.022 322.696 341.053 338.063 341.159 357.863C341.213 360.23 342.105 363.674 342.559 365.966C343.106 368.722 343.563 371.371 344.069 374.411C347.013 392.128 350.508 407.755 352.059 426.149C353.288 440.736 354.97 466.071 346.51 478.596C345.105 480.675 343.702 482.167 341.325 483.366C337.881 485.104 337.881 485.011 333.015 485.011C333.015 444.003 335.614 424.775 320.35 386.365C318.52 381.76 316.639 377.921 314.463 373.713L308.129 361.069C306.615 360.009 304.297 355.581 302.982 353.53C293.831 339.256 283.72 331.788 269.752 322.011C267.21 320.232 264.432 318.906 261.908 317.206C239.518 302.124 246.149 304.98 219.458 294.945C216.332 293.77 213.022 292.96 209.441 292.339C200.624 290.813 199.874 288.772 194.185 281.305C191.708 278.054 185.348 269.777 182.185 267.523C179.148 265.36 175.988 261.669 171.798 258.457C170.844 257.726 169.199 256.437 168.277 255.629C165.886 253.535 167.747 251.186 168.741 245.653C169.408 241.939 169.501 237.907 169.475 233.864C169.454 230.644 168.119 224.462 168.38 222.223L171.216 212.376C173.292 204.601 177.693 184.453 172.417 179.097C170.339 176.986 165.795 177.855 162.894 179.603C157.949 182.581 148.086 194.711 142.169 197.797C139.442 199.221 116.778 197.942 110.372 197.852C107.198 197.807 107.34 197.738 105.706 196.036C100.026 190.115 82.5905 169.898 76.1271 178.801C74.1846 181.477 74.3457 186.316 74.8957 190.259C76.6183 202.61 84.8893 216.113 85.4956 231.15C83.1556 249.462 84.1738 254.383 94.5516 273.712C95.6705 277.699 97.0036 280.154 96.9641 284.556C96.9246 288.951 96.7132 293.011 97.1483 297.422C97.835 304.385 99.662 312.155 100.867 319.4C103.552 335.545 105.952 355.86 116.046 368.943C117.983 371.453 120.097 373.587 121.898 376.25L127.896 382.913C138.925 396.03 145.373 409.468 148.711 426.778C149.46 430.664 149.924 434.407 150.377 438.366C150.631 440.582 150.667 441.714 150.659 444.286C150.652 446.548 150.659 448.812 150.659 451.074Z" fill="#EADA87"/>
<path fill-rule="evenodd" clip-rule="evenodd" d="M175.054 478.676C177.515 487.502 184.302 494.113 184.599 497.68C182.383 498.272 180.409 501.274 179.484 503.424C174.507 514.992 173.245 512.216 169.132 515.244C166.023 517.533 166.523 519.034 165.595 523.019C168.116 523.019 168.502 523.362 170.57 523.474C175.488 523.739 182.758 523.083 187.743 523.495C191.92 523.841 199.15 525.039 202.342 522.662C204.071 521.374 203.576 520.342 205.413 519.852C206.236 523.381 207.484 523.688 212.198 523.927C220.2 524.332 250.334 525.015 256.282 524.115C261.035 523.396 275.07 524.162 280.907 520.686C282.561 519.701 282.971 519.4 284.14 518.042C284.934 514.772 286.58 513.113 287.879 510.448C289.275 507.583 289.132 503.81 289.209 500.451C295.758 498.5 301.507 489.984 304.729 483.432C309.078 474.586 310.308 467.164 308.862 456.159C306.394 457.731 304.232 461.59 299.982 461.946C295.3 457.277 296.824 450.855 291.481 443.291C287.706 437.947 283.207 434.109 277.129 430.484C261.299 421.041 240.96 422.153 233.804 420.017C232.202 415.082 234.988 407.007 231.578 397.301C230.545 394.361 230.193 393.546 232.256 391.501C238.63 385.184 242.215 381.229 245.61 371.808C252.616 352.37 247.61 334.37 240.288 318.087C236.741 319.366 234.207 325.04 230.752 326.799C228.616 325.497 224.147 318.755 223.513 318.169C221.075 319.333 213.023 332.675 211.352 335.762C207.197 343.437 206.021 348.263 203.418 357.238C202.175 361.522 201.71 365.262 201.155 369.986C200.897 372.174 200.584 374.656 200.009 376.485C199.191 379.09 198.857 378.849 195.939 379.611C191.301 380.823 188.429 381.097 185.124 383.736L177.581 390.666C171.502 397.021 162.959 400.891 161.803 404.732C160.93 407.632 161.927 415.322 162.399 418.504C163.059 422.962 165.365 425.53 167.703 427.714C173.554 433.178 173.003 432.126 173.238 437.045C174.105 455.209 171.472 455.845 175.054 478.676V478.676Z" fill="#7758AC" fill-opacity="0.58"/>
<path fill-rule="evenodd" clip-rule="evenodd" d="M303.151 56.0584C301.762 50.0978 298.158 44.9928 292.605 42.1701C284.768 38.1861 276.807 43.3888 269.215 43.3888C271.476 46.4751 275.774 43.7256 280.17 59.5823C282.132 66.6567 284.502 73.4703 288.803 78.551C298.789 90.3492 306.283 85.0018 312.747 95.33C317.131 102.334 317.395 108.168 313.866 115.189C312.721 117.466 310.41 120.093 309.938 122.121C312.369 120.954 312.836 121.622 316.928 119.156C333.243 109.325 330.006 86.9517 321.703 85.0172C323.178 83.0036 331.769 83.1496 336.011 82.8147C341.781 82.3592 344.836 81.4571 348.06 80.2691C353.142 78.3969 361.746 75.3989 366.388 66.8627C366.742 65.741 369.672 62.4179 370.118 61.4882C365.562 61.5896 358.425 67.8228 349.757 67.8228C344.586 67.8228 340.145 63.8316 333.268 61.2346C332.65 61.0011 332.514 60.9871 331.948 60.7445L330.752 60.1307C335.724 60.1307 341.797 56.0018 343.817 54.3048C348.06 50.741 350.852 44.736 351.106 39.3087C351.214 37.0081 351.528 35.6232 351.566 33.8867C346.089 37.5547 344.676 42.086 335.545 44.1094C324.839 46.482 317.353 42.8933 307.352 51.2101C305.539 52.7183 304.628 54.976 303.151 56.0584Z" fill="#F9E47A" fill-opacity="0.81"/>
<path d="M182.916 218.562L186.555 219.191C186.508 219.462 186.587 219.704 186.79 219.916C186.998 220.13 187.287 220.269 187.655 220.333C188.024 220.396 188.341 220.353 188.608 220.202C188.879 220.047 189.042 219.818 189.094 219.514C189.127 219.323 189.107 219.147 189.034 218.985C188.962 218.819 188.847 218.679 188.689 218.565C188.53 218.451 188.339 218.375 188.115 218.336L186.772 218.104L187.164 215.837L188.507 216.069C188.839 216.126 189.121 216.093 189.353 215.97C189.591 215.848 189.73 215.665 189.772 215.422C189.821 215.143 189.757 214.896 189.583 214.683C189.408 214.471 189.162 214.337 188.845 214.282C188.528 214.227 188.254 214.254 188.024 214.364C187.793 214.473 187.658 214.644 187.618 214.877L183.978 214.248C184.098 213.558 184.405 213.005 184.899 212.591C185.394 212.172 186.009 211.894 186.744 211.757C187.48 211.615 188.268 211.616 189.107 211.762C190.069 211.928 190.874 212.187 191.524 212.54C192.175 212.892 192.645 213.327 192.935 213.843C193.226 214.359 193.314 214.948 193.199 215.611C193.105 216.157 192.826 216.592 192.361 216.915C191.898 217.234 191.264 217.41 190.461 217.444L190.441 217.556C190.899 217.659 191.31 217.843 191.672 218.108C192.04 218.373 192.316 218.709 192.5 219.116C192.684 219.522 192.73 219.994 192.637 220.53C192.521 221.202 192.213 221.738 191.711 222.136C191.215 222.536 190.579 222.796 189.803 222.917C189.028 223.037 188.167 223.016 187.22 222.852C186.296 222.692 185.492 222.426 184.806 222.053C184.122 221.675 183.609 221.195 183.268 220.612C182.927 220.025 182.81 219.342 182.916 218.562ZM196.594 224.443C195.908 224.325 195.321 224.108 194.832 223.793C194.349 223.474 193.998 223.058 193.78 222.544C193.561 222.031 193.513 221.417 193.637 220.703C193.738 220.115 193.925 219.631 194.197 219.25C194.471 218.865 194.81 218.571 195.215 218.367C195.62 218.163 196.073 218.032 196.573 217.974C197.078 217.917 197.611 217.916 198.174 217.97C198.784 218.027 199.276 218.055 199.652 218.052C200.032 218.046 200.315 217.996 200.499 217.903C200.684 217.805 200.794 217.654 200.83 217.448L200.835 217.42C200.883 217.141 200.813 216.907 200.624 216.721C200.435 216.535 200.173 216.412 199.837 216.354C199.468 216.291 199.153 216.32 198.892 216.443C198.636 216.562 198.456 216.784 198.352 217.107L194.797 216.492C194.956 215.847 195.268 215.281 195.731 214.794C196.201 214.304 196.821 213.954 197.592 213.746C198.364 213.534 199.284 213.52 200.352 213.705C201.122 213.838 201.797 214.048 202.377 214.335C202.957 214.618 203.434 214.958 203.808 215.354C204.182 215.745 204.445 216.175 204.594 216.643C204.75 217.107 204.784 217.589 204.698 218.088L203.426 225.45L199.814 224.826L200.076 223.315L199.992 223.3C199.708 223.664 199.39 223.944 199.04 224.138C198.694 224.333 198.315 224.452 197.904 224.496C197.497 224.541 197.061 224.524 196.594 224.443ZM198.275 222.225C198.569 222.276 198.854 222.263 199.132 222.186C199.414 222.11 199.657 221.971 199.859 221.771C200.062 221.571 200.192 221.307 200.248 220.981L200.403 220.085C200.293 220.109 200.177 220.13 200.054 220.147C199.935 220.165 199.808 220.179 199.672 220.189C199.54 220.2 199.399 220.207 199.25 220.21C199.105 220.214 198.954 220.214 198.796 220.211C198.489 220.206 198.231 220.24 198.021 220.315C197.817 220.385 197.654 220.489 197.535 220.627C197.42 220.761 197.347 220.921 197.314 221.108C197.263 221.407 197.328 221.653 197.511 221.848C197.693 222.043 197.948 222.169 198.275 222.225ZM214.875 227.631C213.774 227.44 212.83 227.078 212.043 226.543C211.261 226.004 210.685 225.35 210.313 224.579C209.947 223.81 209.836 222.978 209.98 222.086L213.76 222.739C213.688 223.236 213.811 223.663 214.129 224.021C214.452 224.379 214.869 224.603 215.383 224.691C215.779 224.76 216.144 224.736 216.476 224.621C216.809 224.5 217.089 224.299 217.316 224.016C217.542 223.733 217.689 223.384 217.756 222.968C217.833 222.549 217.812 222.17 217.693 221.833C217.574 221.49 217.378 221.209 217.104 220.988C216.83 220.763 216.495 220.617 216.099 220.548C215.688 220.477 215.29 220.512 214.906 220.652C214.527 220.788 214.225 221.017 214.001 221.339L210.702 220.077L212.626 212.279L222.256 213.943L221.719 217.051L215.281 215.938L214.454 219.053L214.538 219.068C214.837 218.672 215.286 218.38 215.886 218.191C216.487 217.996 217.151 217.962 217.879 218.088C218.732 218.235 219.459 218.565 220.057 219.077C220.661 219.59 221.096 220.229 221.362 220.996C221.634 221.759 221.689 222.595 221.527 223.504C221.359 224.503 220.968 225.349 220.353 226.04C219.744 226.728 218.97 227.216 218.032 227.506C217.093 227.791 216.041 227.832 214.875 227.631ZM228.528 230.192C227.227 229.962 226.155 229.467 225.311 228.706C224.467 227.945 223.886 226.958 223.567 225.745C223.248 224.532 223.226 223.14 223.503 221.568C223.78 219.992 224.268 218.697 224.967 217.684C225.67 216.671 226.543 215.96 227.584 215.549C228.631 215.138 229.805 215.046 231.106 215.271C232.408 215.496 233.483 215.979 234.33 216.721C235.178 217.459 235.763 218.423 236.086 219.612C236.409 220.802 236.433 222.183 236.156 223.754C235.883 225.336 235.392 226.645 234.685 227.681C233.977 228.716 233.099 229.451 232.048 229.884C231.003 230.314 229.83 230.417 228.528 230.192ZM229.075 227.028C229.747 227.144 230.358 226.89 230.908 226.264C231.464 225.634 231.869 224.566 232.125 223.058C232.295 222.073 232.336 221.252 232.248 220.593C232.16 219.933 231.97 219.425 231.676 219.067C231.383 218.704 231.013 218.483 230.565 218.406C229.893 218.29 229.286 218.536 228.744 219.144C228.201 219.751 227.798 220.792 227.534 222.265C227.356 223.267 227.309 224.109 227.393 224.792C227.478 225.469 227.666 225.992 227.958 226.36C228.255 226.728 228.627 226.951 229.075 227.028ZM240.007 235.923L242.561 221.142L246.396 221.805L246.072 223.68L246.156 223.695C246.359 223.355 246.622 223.057 246.945 222.8C247.269 222.539 247.647 222.352 248.08 222.24C248.513 222.122 248.996 222.11 249.528 222.202C250.237 222.324 250.878 222.63 251.452 223.118C252.031 223.607 252.451 224.292 252.712 225.173C252.977 226.055 252.998 227.145 252.774 228.442C252.56 229.683 252.188 230.678 251.66 231.428C251.136 232.178 250.518 232.699 249.804 232.989C249.096 233.279 248.359 233.359 247.594 233.227C247.09 233.139 246.654 232.98 246.286 232.748C245.923 232.512 245.626 232.228 245.395 231.895C245.17 231.558 245.014 231.195 244.927 230.805L244.871 230.796L243.87 236.59L240.007 235.923ZM245.411 227.17C245.321 227.692 245.311 228.157 245.38 228.563C245.455 228.965 245.6 229.293 245.815 229.546C246.036 229.796 246.324 229.951 246.679 230.012C247.034 230.074 247.352 230.025 247.634 229.867C247.921 229.706 248.163 229.447 248.359 229.092C248.56 228.733 248.707 228.287 248.799 227.755C248.891 227.223 248.902 226.757 248.832 226.355C248.767 225.95 248.626 225.626 248.409 225.381C248.197 225.133 247.914 224.979 247.559 224.917C247.205 224.856 246.881 224.906 246.589 225.067C246.303 225.224 246.056 225.482 245.85 225.84C245.65 226.195 245.503 226.638 245.411 227.17ZM254.791 238.478C254.348 238.401 253.932 238.293 253.543 238.154C253.153 238.019 252.816 237.867 252.533 237.698L253.847 235.1C254.145 235.267 254.422 235.389 254.677 235.467C254.938 235.545 255.167 235.566 255.366 235.528C255.569 235.491 255.73 235.382 255.848 235.2L255.966 235.019L254.126 223.14L258.157 223.837L258.606 231.583L258.718 231.603L261.769 224.461L265.828 225.162L259.896 236.131C259.598 236.689 259.221 237.172 258.767 237.579C258.316 237.991 257.766 238.283 257.116 238.454C256.467 238.625 255.692 238.633 254.791 238.478ZM277.173 223.115L277.68 225.855C277.355 226.01 277.019 226.118 276.672 226.178C276.326 226.234 275.905 226.243 275.407 226.205C274.909 226.162 274.269 226.073 273.485 225.938C272.599 225.784 271.867 225.764 271.29 225.875C270.714 225.987 270.245 226.264 269.885 226.707C269.525 227.149 269.225 227.787 268.985 228.62L269.069 228.634C269.475 228.041 269.984 227.598 270.596 227.305C271.214 227.013 271.994 226.948 272.936 227.111C273.902 227.278 274.699 227.627 275.328 228.159C275.958 228.686 276.396 229.35 276.642 230.152C276.892 230.954 276.932 231.852 276.76 232.846C276.575 233.919 276.191 234.816 275.61 235.538C275.029 236.259 274.285 236.767 273.379 237.062C272.473 237.357 271.437 237.404 270.27 237.202C269.104 237.001 268.145 236.6 267.393 235.999C266.642 235.398 266.121 234.616 265.831 233.653C265.541 232.69 265.507 231.565 265.73 230.277L265.85 229.577C266.321 226.852 267.232 224.958 268.584 223.894C269.94 222.831 271.703 222.487 273.872 222.862C274.376 222.949 274.833 223.028 275.244 223.099C275.659 223.171 276.027 223.213 276.347 223.225C276.671 223.238 276.947 223.201 277.173 223.115ZM270.791 234.352C271.118 234.408 271.416 234.368 271.684 234.232C271.954 234.091 272.183 233.862 272.373 233.544C272.563 233.221 272.7 232.817 272.784 232.332C272.869 231.837 272.876 231.406 272.806 231.038C272.735 230.671 272.596 230.375 272.389 230.152C272.183 229.929 271.916 229.789 271.59 229.733C271.333 229.688 271.093 229.7 270.87 229.767C270.647 229.834 270.446 229.956 270.267 230.131C270.093 230.303 269.944 230.527 269.819 230.803C269.695 231.075 269.601 231.398 269.536 231.771C269.411 232.499 269.458 233.088 269.678 233.54C269.902 233.992 270.274 234.262 270.791 234.352ZM277.082 238.178L277.557 235.261L277.893 235.319C278.103 235.356 278.298 235.327 278.477 235.233C278.662 235.14 278.832 234.977 278.987 234.744C279.147 234.513 279.293 234.209 279.426 233.833C279.563 233.458 279.686 233.006 279.797 232.477L280.787 227.747L289.633 229.276L287.776 240.025L284.137 239.397L285.496 231.53L283.704 231.221L283.033 234.103C282.829 235.009 282.564 235.761 282.24 236.359C281.92 236.957 281.552 237.42 281.135 237.746C280.719 238.069 280.265 238.278 279.772 238.376C279.281 238.469 278.757 238.467 278.202 238.371L277.082 238.178ZM294.744 241.431C293.596 241.233 292.645 240.843 291.89 240.261C291.141 239.675 290.614 238.93 290.309 238.027C290.009 237.12 289.959 236.088 290.159 234.931C290.351 233.82 290.742 232.888 291.334 232.135C291.925 231.382 292.669 230.845 293.565 230.524C294.462 230.204 295.465 230.139 296.576 230.331C297.387 230.471 298.101 230.724 298.715 231.09C299.329 231.456 299.828 231.919 300.212 232.48C300.596 233.037 300.855 233.677 300.99 234.402C301.124 235.127 301.117 235.916 300.97 236.77L300.815 237.666L291.213 236.006L291.58 233.879L297.627 234.924C297.676 234.615 297.643 234.331 297.529 234.071C297.421 233.807 297.25 233.588 297.016 233.413C296.788 233.234 296.512 233.117 296.19 233.061C295.878 233.007 295.579 233.025 295.294 233.115C295.011 233.201 294.769 233.346 294.57 233.552C294.376 233.759 294.247 234.018 294.184 234.329L293.787 236.624C293.728 236.97 293.747 237.29 293.845 237.586C293.942 237.881 294.113 238.129 294.357 238.33C294.601 238.531 294.915 238.664 295.297 238.73C295.563 238.776 295.812 238.781 296.044 238.744C296.281 238.708 296.491 238.634 296.674 238.521C296.858 238.404 297.004 238.252 297.113 238.064L300.641 238.673C300.39 239.399 299.991 239.998 299.444 240.47C298.897 240.938 298.224 241.259 297.425 241.433C296.631 241.604 295.738 241.603 294.744 241.431ZM306.108 238.119L310.109 232.814L313.749 233.443L311.891 244.192L308.252 243.564L309.263 237.713L305.257 243.046L301.617 242.417L303.475 231.667L307.114 232.296L306.108 238.119ZM310.665 228.931L313.1 229.352C312.939 230.261 312.465 230.929 311.68 231.355C310.896 231.777 309.919 231.887 308.748 231.685C307.567 231.481 306.679 231.048 306.081 230.388C305.485 229.723 305.268 228.936 305.43 228.027L307.838 228.443C307.782 228.736 307.84 229.024 308.012 229.309C308.19 229.589 308.539 229.775 309.062 229.865C309.561 229.951 309.939 229.894 310.195 229.693C310.45 229.492 310.607 229.238 310.665 228.931ZM319.439 249.648C318.996 249.571 318.579 249.464 318.19 249.324C317.8 249.19 317.464 249.038 317.181 248.869L318.495 246.27C318.792 246.437 319.069 246.559 319.325 246.637C319.585 246.716 319.815 246.736 320.013 246.699C320.217 246.662 320.377 246.552 320.495 246.371L320.613 246.19L318.774 234.311L322.805 235.007L323.254 242.754L323.366 242.773L326.416 235.631L330.475 236.333L324.544 247.301C324.245 247.86 323.869 248.343 323.414 248.749C322.963 249.162 322.413 249.453 321.764 249.625C321.114 249.796 320.339 249.804 319.439 249.648ZM341.82 234.286L342.327 237.026C342.002 237.181 341.667 237.289 341.32 237.349C340.974 237.404 340.552 237.413 340.054 237.375C339.557 237.333 338.916 237.244 338.133 237.108C337.246 236.955 336.514 236.934 335.938 237.046C335.361 237.158 334.893 237.435 334.533 237.877C334.173 238.319 333.873 238.957 333.633 239.79L333.717 239.805C334.122 239.212 334.631 238.769 335.244 238.476C335.861 238.184 336.641 238.119 337.584 238.282C338.55 238.449 339.347 238.798 339.976 239.329C340.606 239.856 341.043 240.521 341.289 241.322C341.54 242.125 341.579 243.023 341.407 244.017C341.222 245.09 340.839 245.987 340.258 246.708C339.677 247.429 338.933 247.938 338.027 248.233C337.12 248.528 336.084 248.574 334.918 248.373C333.751 248.171 332.792 247.77 332.041 247.169C331.289 246.569 330.768 245.787 330.478 244.824C330.188 243.861 330.155 242.735 330.377 241.448L330.498 240.748C330.969 238.023 331.88 236.129 333.231 235.065C334.587 234.002 336.35 233.658 338.52 234.033C339.024 234.12 339.481 234.199 339.892 234.27C340.307 234.341 340.674 234.383 340.994 234.395C341.319 234.408 341.594 234.372 341.82 234.286ZM335.439 245.522C335.766 245.579 336.063 245.539 336.332 245.403C336.601 245.262 336.831 245.032 337.02 244.714C337.21 244.392 337.347 243.988 337.431 243.503C337.517 243.008 337.524 242.577 337.453 242.209C337.382 241.841 337.243 241.546 337.037 241.323C336.83 241.099 336.564 240.96 336.237 240.903C335.98 240.859 335.741 240.87 335.518 240.938C335.295 241.005 335.093 241.126 334.914 241.302C334.74 241.474 334.591 241.698 334.466 241.974C334.343 242.246 334.248 242.568 334.184 242.941C334.058 243.669 334.105 244.259 334.325 244.71C334.55 245.162 334.921 245.433 335.439 245.522ZM347.267 250.507C346.119 250.308 345.168 249.918 344.413 249.336C343.664 248.75 343.136 248.006 342.831 247.102C342.531 246.195 342.481 245.163 342.681 244.006C342.873 242.896 343.265 241.964 343.856 241.211C344.448 240.458 345.192 239.921 346.088 239.6C346.984 239.279 347.988 239.215 349.098 239.406C349.91 239.547 350.623 239.8 351.237 240.165C351.852 240.531 352.351 240.994 352.734 241.556C353.118 242.112 353.378 242.753 353.512 243.477C353.646 244.202 353.64 244.991 353.492 245.845L353.337 246.741L343.735 245.082L344.103 242.954L350.15 243.999C350.198 243.69 350.166 243.406 350.052 243.146C349.944 242.882 349.773 242.663 349.539 242.488C349.31 242.309 349.035 242.192 348.713 242.136C348.4 242.082 348.102 242.1 347.817 242.191C347.533 242.276 347.292 242.422 347.093 242.628C346.898 242.834 346.77 243.093 346.706 243.404L346.31 245.7C346.25 246.045 346.269 246.365 346.367 246.661C346.465 246.957 346.636 247.205 346.88 247.406C347.124 247.606 347.437 247.74 347.82 247.806C348.086 247.852 348.335 247.856 348.567 247.82C348.804 247.784 349.014 247.709 349.196 247.597C349.38 247.48 349.527 247.327 349.636 247.139L353.163 247.749C352.913 248.474 352.514 249.073 351.966 249.546C351.419 250.013 350.746 250.334 349.947 250.509C349.154 250.679 348.26 250.678 347.267 250.507ZM353.443 255.524L355.997 240.743L359.832 241.405L359.508 243.281L359.592 243.296C359.795 242.956 360.058 242.658 360.381 242.401C360.705 242.14 361.083 241.953 361.516 241.84C361.949 241.723 362.432 241.71 362.964 241.802C363.673 241.925 364.315 242.23 364.889 242.719C365.467 243.208 365.887 243.893 366.148 244.774C366.414 245.656 366.434 246.746 366.21 248.043C365.996 249.284 365.624 250.279 365.096 251.029C364.572 251.779 363.954 252.299 363.241 252.589C362.532 252.88 361.795 252.959 361.03 252.827C360.526 252.74 360.09 252.581 359.722 252.349C359.359 252.113 359.062 251.829 358.831 251.496C358.606 251.159 358.45 250.796 358.364 250.406L358.308 250.396L357.306 256.191L353.443 255.524ZM358.848 246.771C358.757 247.293 358.747 247.757 358.816 248.163C358.891 248.566 359.036 248.893 359.252 249.147C359.473 249.396 359.761 249.552 360.115 249.613C360.47 249.674 360.788 249.626 361.07 249.468C361.357 249.306 361.599 249.048 361.795 248.693C361.996 248.333 362.143 247.888 362.235 247.356C362.327 246.824 362.338 246.357 362.268 245.956C362.203 245.551 362.062 245.226 361.845 244.982C361.633 244.734 361.35 244.579 360.996 244.518C360.641 244.457 360.318 244.507 360.026 244.668C359.739 244.825 359.493 245.083 359.286 245.441C359.086 245.796 358.94 246.239 358.848 246.771ZM368.228 258.078C367.784 258.002 367.368 257.894 366.979 257.754C366.589 257.62 366.253 257.468 365.969 257.299L367.283 254.701C367.581 254.867 367.858 254.99 368.114 255.067C368.374 255.146 368.603 255.167 368.802 255.129C369.006 255.092 369.166 254.983 369.284 254.801L369.402 254.62L367.562 242.741L371.594 243.438L372.042 251.184L372.154 251.203L375.205 244.062L379.264 244.763L373.332 255.731C373.034 256.29 372.658 256.773 372.203 257.18C371.752 257.592 371.202 257.884 370.553 258.055C369.903 258.226 369.128 258.234 368.228 258.078ZM389.786 253.529L393.303 247.189L396.046 247.663L390.298 257.74L387.89 257.324L385.969 245.922L388.712 246.396L389.786 253.529ZM387.928 246.26L386.071 257.01L382.431 256.381L384.289 245.631L387.928 246.26ZM392.369 258.098L394.227 247.348L397.81 247.968L395.953 258.717L392.369 258.098ZM400.775 259.724C400.09 259.605 399.502 259.388 399.014 259.073C398.531 258.754 398.18 258.338 397.961 257.825C397.742 257.311 397.695 256.698 397.818 255.984C397.919 255.396 398.106 254.912 398.379 254.531C398.652 254.146 398.991 253.851 399.396 253.647C399.802 253.443 400.254 253.313 400.754 253.255C401.259 253.198 401.793 253.197 402.355 253.25C402.965 253.308 403.458 253.335 403.833 253.333C404.214 253.327 404.496 253.277 404.68 253.184C404.865 253.086 404.976 252.934 405.011 252.729L405.016 252.701C405.064 252.421 404.994 252.188 404.805 252.002C404.616 251.815 404.354 251.693 404.018 251.635C403.65 251.571 403.335 251.601 403.073 251.724C402.817 251.843 402.637 252.064 402.533 252.387L398.978 251.773C399.137 251.128 399.449 250.562 399.913 250.075C400.382 249.584 401.002 249.235 401.773 249.027C402.545 248.815 403.465 248.801 404.534 248.985C405.304 249.118 405.978 249.329 406.558 249.616C407.139 249.899 407.616 250.239 407.989 250.635C408.364 251.026 408.626 251.456 408.776 251.924C408.931 252.388 408.965 252.869 408.879 253.369L407.607 260.731L403.996 260.107L404.257 258.595L404.173 258.581C403.889 258.945 403.572 259.224 403.221 259.418C402.875 259.613 402.496 259.733 402.085 259.777C401.679 259.822 401.242 259.804 400.775 259.724ZM402.456 257.506C402.75 257.557 403.036 257.544 403.313 257.467C403.595 257.39 403.838 257.252 404.041 257.052C404.244 256.851 404.373 256.588 404.43 256.261L404.584 255.365C404.475 255.39 404.358 255.41 404.235 255.428C404.117 255.446 403.989 255.46 403.853 255.47C403.721 255.481 403.581 255.488 403.431 255.491C403.286 255.494 403.135 255.495 402.977 255.491C402.67 255.486 402.412 255.521 402.202 255.595C401.998 255.666 401.836 255.77 401.716 255.908C401.601 256.042 401.528 256.202 401.496 256.389C401.444 256.687 401.51 256.934 401.692 257.129C401.875 257.324 402.129 257.449 402.456 257.506ZM408.756 265.081L411.31 250.3L415.146 250.963L414.821 252.839L414.905 252.853C415.108 252.513 415.371 252.215 415.694 251.959C416.018 251.698 416.396 251.511 416.829 251.398C417.263 251.281 417.745 251.268 418.277 251.36C418.986 251.483 419.628 251.788 420.202 252.276C420.78 252.766 421.2 253.451 421.461 254.332C421.727 255.214 421.747 256.303 421.523 257.6C421.309 258.842 420.938 259.837 420.409 260.586C419.885 261.337 419.267 261.857 418.554 262.147C417.845 262.438 417.108 262.517 416.343 262.385C415.839 262.298 415.403 262.138 415.035 261.907C414.672 261.671 414.375 261.387 414.144 261.054C413.919 260.717 413.763 260.353 413.677 259.964L413.621 259.954L412.62 265.749L408.756 265.081ZM414.161 256.328C414.071 256.851 414.06 257.315 414.129 257.721C414.204 258.123 414.349 258.451 414.565 258.704C414.786 258.954 415.074 259.11 415.428 259.171C415.783 259.232 416.101 259.184 416.383 259.026C416.671 258.864 416.912 258.606 417.108 258.25C417.31 257.891 417.456 257.445 417.548 256.914C417.64 256.382 417.651 255.915 417.581 255.514C417.516 255.109 417.376 254.784 417.158 254.54C416.946 254.292 416.663 254.137 416.309 254.076C415.954 254.015 415.631 254.064 415.339 254.225C415.052 254.382 414.806 254.64 414.6 254.999C414.399 255.353 414.253 255.796 414.161 256.328ZM422.213 263.255L424.07 252.505L427.934 253.173L427.271 257.008L427.943 257.124L430.901 253.685L435.324 254.45L430.942 259.286L433.495 265.204L429.016 264.43L427.52 260.741L426.652 260.591L426.076 263.922L422.213 263.255ZM436.339 269.847C435.896 269.771 435.48 269.663 435.091 269.524C434.701 269.389 434.364 269.237 434.081 269.068L435.395 266.47C435.693 266.636 435.97 266.759 436.225 266.837C436.486 266.915 436.715 266.936 436.914 266.898C437.117 266.861 437.278 266.752 437.396 266.57L437.514 266.389L435.674 254.51L439.705 255.207L440.154 262.953L440.266 262.972L443.317 255.831L447.376 256.532L441.444 267.501C441.146 268.059 440.769 268.542 440.315 268.949C439.864 269.361 439.314 269.653 438.664 269.824C438.015 269.995 437.24 270.003 436.339 269.847Z" fill="white"/>
</svg>
