<svg width="300" height="300" viewBox="0 0 300 300" fill="none" xmlns="http://www.w3.org/2000/svg">
<g clip-path="url(#clip0_301_2)">
<path d="M49.2646 221.889C49.5598 221.477 49.7985 221.028 49.9746 220.554C50.8781 215.615 51.5665 210.634 52.6422 205.716C53.4597 202.049 54.7935 198.509 55.8261 194.884C56.6866 191.641 57.1169 188.25 58.128 185.07C61.2259 175.32 64.3238 165.569 67.7444 155.924C72.239 143.545 77.7428 131.543 84.2019 120.038C92.0465 105.347 101.962 91.8232 113.653 79.8699C118.881 74.6555 123.678 69.0171 128.712 63.7179C130.627 61.7465 133.015 60.3263 135.166 58.4186C137.717 56.0514 140.069 53.4854 142.201 50.7453C147.924 42.9237 153.539 35.0596 158.874 27.0048C163.239 20.4232 166.487 13.1851 168.49 5.57471C172.288 11.9835 174.985 18.9666 176.472 26.2417C177.999 33.2367 178.773 40.4012 179.957 48.0109C181.828 48.2229 184.259 48.5621 186.862 48.7528C195.162 49.3263 203.257 51.5546 210.656 55.3027C215.311 57.6879 219.211 61.2884 221.929 65.7104C222.483 66.7372 223.293 67.6084 224.283 68.2424C225.272 68.8764 226.409 69.2523 227.587 69.335C239.849 70.9036 252.09 72.5923 264.309 74.4011C269.128 75.143 273.883 76.3936 278.637 77.5594C281.52 78.2801 282.316 79.8275 281.219 82.4983C280.271 85.1287 279 87.6346 277.432 89.9596C275.297 93.1751 273.834 96.7783 273.13 100.558C272.348 104.272 271.35 107.938 270.139 111.538C268.591 115.438 267.257 119.614 263.901 122.518C262.274 123.975 260.384 125.119 258.329 125.888C253.344 127.287 248.111 127.605 242.99 126.821C237.961 126.01 232.804 126.995 228.447 129.598C225.477 131.294 222.385 132.775 219.197 134.028C214.421 136.148 209.3 135.66 204.137 135.809C203.148 134.134 202.309 132.481 201.233 130.954C196.78 124.595 192.37 118.236 187.658 111.877C185.507 109.058 182.667 106.811 180.279 104.183C179.363 103.01 178.564 101.754 177.891 100.431L178.408 100.071L168.555 88.4335L167.995 88.5606L167.264 96.6367L166.683 96.9334L156.722 88.2003L156.034 88.4759C156.034 95.0893 156.895 101.66 157.26 108.549C156.636 109.079 155.905 109.779 155.109 110.351C151.344 113.022 147.665 115.82 143.772 118.279C141.866 119.438 140.28 121.043 139.154 122.951C138.028 124.859 137.398 127.011 137.318 129.216C137.117 131.572 136.036 133.77 134.284 135.385C132.93 136.697 131.686 138.115 130.563 139.624C129.87 140.383 129.504 141.377 129.54 142.397C129.576 143.417 130.012 144.383 130.756 145.093C133.488 148.336 136.242 151.579 139.125 154.695C140.248 155.987 141.655 157.01 143.239 157.686C144.823 158.361 146.543 158.673 148.268 158.595C150.548 158.489 152.829 158.595 155.066 158.595C155.238 159.166 155.374 159.746 155.475 160.333C155.195 167.01 154.894 173.709 154.614 180.386C154.399 185.706 153.861 190.984 154.012 196.368C154.366 201.944 156.74 207.21 160.702 211.206C167.006 218.222 173.61 225.005 179.914 231.979C180.789 233.048 181.267 234.379 181.269 235.752C181.42 241.602 181.269 247.474 181.269 253.303C181.269 256.61 181.914 259.917 182.194 263.223C182.409 265.894 182.624 268.607 182.689 271.299C182.753 273.991 182.689 277.213 182.689 280.35H183.7C179.075 280.69 174.471 281.262 169.845 281.347C159.815 281.479 149.793 280.727 139.899 279.1C132.662 278.088 125.566 276.261 118.752 273.652C112.298 271.045 106.038 268.438 99.8634 265.513C96.8301 264.071 94.3776 261.4 91.2582 260.086C84.1334 256.725 77.5976 252.268 71.8964 246.88C65.4425 241.157 59.763 234.501 53.8684 228.142C52.1904 226.129 50.6845 224.03 49.2646 221.889ZM204.352 80.8662L204.783 81.3749L211.086 78.0682L212.958 84.1729C214.765 82.4738 215.82 80.1408 215.892 77.6802C215.965 75.2197 215.05 72.8303 213.345 71.0308C209.559 73.6168 205.901 76.3088 204.352 80.8662Z" fill="#F5911C"/>
<path d="M49.8454 220.914C111.696 312.061 262.115 293.238 300 190.03C272.549 309.051 99.3255 340.401 29.7737 239.61C-46.5117 144.732 33.9042 -7.90656 156.701 0.33904C49.2861 4.43005 -14.8014 136.232 49.8454 220.914Z" fill="#3B82F6"/>
<path d="M243.657 209.468C243.971 214.383 242.844 219.284 240.409 223.585C238.257 226.934 235.439 229.393 231.115 228.651C229.397 228.297 227.78 227.574 226.378 226.533C224.976 225.493 223.824 224.16 223.005 222.631C222.746 222.207 222.51 221.741 222.295 221.296C221.685 219.605 220.485 218.183 218.907 217.286C217.33 216.389 215.48 216.074 213.689 216.399C211.292 216.529 208.891 216.249 206.59 215.573C205.336 215.424 204.193 214.792 203.411 213.815C202.628 212.837 202.271 211.595 202.417 210.358C202.501 209.644 202.76 208.961 203.17 208.366C204.672 205.43 206.818 202.86 209.451 200.841C212.814 197.831 216.688 195.427 220.896 193.74C224.018 192.58 227.267 191.783 230.577 191.366C232.345 191.193 234.127 191.515 235.718 192.295C237.308 193.075 238.644 194.281 239.57 195.775C242.223 199.865 243.641 204.614 243.657 209.468Z" fill="#3B82F6"/>
<path d="M226.576 176.401C226.576 169.469 229.48 161.754 236.773 163.131C252.263 169.194 228.964 199.484 226.576 176.401Z" fill="#3B82F6"/>
<path d="M246.755 191.239C243.077 191.239 241.614 189.861 241.528 187.148C241.398 182.145 247.078 174.43 251.918 172.819C253.17 172.342 254.535 172.232 255.848 172.503C257.161 172.774 258.367 173.414 259.319 174.345C260.243 175.243 260.871 176.395 261.121 177.651C261.37 178.906 261.23 180.207 260.717 181.382C258.975 186.173 254.952 188.547 250.477 190.285C249.259 190.684 248.016 191.003 246.755 191.239Z" fill="#3B82F6"/>
<path d="M207.429 184.519C205.471 172.84 223.758 166.989 222.23 180.852C222.574 193.189 207.73 201.328 207.429 184.519Z" fill="#3B82F6"/>
<path d="M259.147 193.358C280.165 197.407 246.239 223.246 246.239 206.988C246.259 205.696 246.583 204.426 247.186 203.278C249.574 198.573 253.919 193.231 258.695 193.316L259.147 193.358Z" fill="#3B82F6"/>
<path d="M177.16 16.2157L184.26 7.33423L184.841 7.5462C187.659 19.1833 188.476 30.8628 183.034 42.5847C182.57 41.9408 182.221 41.2241 182.001 40.465C181.161 32.4988 179.533 24.6326 177.139 16.9788C177.113 16.7246 177.121 16.4682 177.16 16.2157Z" fill="#F5911C"/>
<path d="M147.601 129.259C146.393 131.377 144.443 132.989 142.116 133.795C141.714 133.249 141.426 132.631 141.267 131.976C141.109 131.321 141.082 130.641 141.19 129.976C141.298 129.31 141.538 128.672 141.896 128.098C142.254 127.524 142.723 127.026 143.277 126.63C143.4 126.526 143.538 126.44 143.686 126.376L143.944 129.937L147.623 129.28L147.601 129.259Z" fill="white"/>
<path d="M147.623 129.28L147.989 128.898L147.623 129.28Z" fill="#1D72B2"/>
<path d="M204.353 80.8661C205.901 76.3088 209.559 73.6168 213.345 71.0308C215.05 72.8303 215.965 75.2197 215.893 77.6802C215.82 80.1407 214.765 82.4738 212.958 84.1729L211.086 78.0681L204.783 81.3749L204.353 80.8661Z" fill="#FEFEFE"/>
<path d="M177.87 100.622L174.944 95.9373L178.365 100.261" fill="#F5911C"/>
</g>
<defs>
<clipPath id="clip0_301_2">
<rect width="300" height="300" fill="white"/>
</clipPath>
</defs>
</svg>
